<?xml version="1.0" encoding="UTF-8"?>
<!DOCTYPE svg PUBLIC "-//W3C//DTD SVG 1.1//EN" "http://www.w3.org/Graphics/SVG/1.1/DTD/svg11.dtd">
<svg xmlns="http://www.w3.org/2000/svg" version="1.1" width="433px" height="155px" style="shape-rendering:geometricPrecision; text-rendering:geometricPrecision; image-rendering:optimizeQuality; fill-rule:evenodd; clip-rule:evenodd" xmlns:xlink="http://www.w3.org/1999/xlink">
<g><path style="opacity:1" fill="#fefdfd" d="M -0.5,-0.5 C 143.833,-0.5 288.167,-0.5 432.5,-0.5C 432.5,51.1667 432.5,102.833 432.5,154.5C 288.167,154.5 143.833,154.5 -0.5,154.5C -0.5,102.833 -0.5,51.1667 -0.5,-0.5 Z"/></g>
<g><path style="opacity:1" fill="#ef8883" d="M 211.5,3.5 C 214.962,2.51836 218.629,2.18503 222.5,2.5C 223.97,14.4772 230.637,21.9772 242.5,25C 247.572,25.7511 252.572,25.4178 257.5,24C 262.613,21.3688 267.28,18.2021 271.5,14.5C 273.674,14.7497 275.341,15.7497 276.5,17.5C 268.494,28.1699 257.827,33.5032 244.5,33.5C 239.645,32.4565 234.978,31.1231 230.5,29.5C 231.239,29.631 231.906,29.4643 232.5,29C 222.631,23.298 216.964,14.798 215.5,3.5C 214.167,3.5 212.833,3.5 211.5,3.5 Z"/></g>
<g><path style="opacity:1" fill="#f6ab9e" d="M 230.5,2.5 C 241.869,2.83018 252.536,5.49685 262.5,10.5C 253.398,19.4137 243.898,19.747 234,11.5C 231.95,8.85242 230.784,5.85242 230.5,2.5 Z"/></g>
<g><path style="opacity:1" fill="#eb7876" d="M 203.5,4.5 C 205.948,3.52693 208.615,3.1936 211.5,3.5C 212.833,3.5 214.167,3.5 215.5,3.5C 216.964,14.798 222.631,23.298 232.5,29C 231.906,29.4643 231.239,29.631 230.5,29.5C 225.848,29.0019 221.181,28.6686 216.5,28.5C 210.86,21.8814 207.36,14.2147 206,5.5C 205.329,4.74756 204.496,4.41423 203.5,4.5 Z"/></g>
<g><path style="opacity:1" fill="#e76164" d="M 196.5,5.5 C 198.607,4.53178 200.941,4.19845 203.5,4.5C 204.496,4.41423 205.329,4.74756 206,5.5C 207.36,14.2147 210.86,21.8814 216.5,28.5C 213.167,28.5 209.833,28.5 206.5,28.5C 202.891,21.8798 200.224,14.8798 198.5,7.5C 198.253,6.28665 197.586,5.61998 196.5,5.5 Z"/></g>
<g><path style="opacity:1" fill="#e44f56" d="M 196.5,5.5 C 197.586,5.61998 198.253,6.28665 198.5,7.5C 200.224,14.8798 202.891,21.8798 206.5,28.5C 202.881,29.2436 199.215,29.577 195.5,29.5C 192.171,22.8463 189.838,15.8463 188.5,8.5C 187.5,8.5 186.5,8.5 185.5,8.5C 188.854,6.74241 192.521,5.74241 196.5,5.5 Z"/></g>
<g><path style="opacity:1" fill="#df3a45" d="M 185.5,8.5 C 186.5,8.5 187.5,8.5 188.5,8.5C 189.838,15.8463 192.171,22.8463 195.5,29.5C 179.738,32.0289 165.071,37.1956 151.5,45C 155.462,36.909 159.295,28.7424 163,20.5C 169.723,15.0548 177.223,11.0548 185.5,8.5 Z"/></g>
<g><path style="opacity:1" fill="#f29b91" d="M 222.5,2.5 C 225.167,2.5 227.833,2.5 230.5,2.5C 230.784,5.85242 231.95,8.85242 234,11.5C 243.898,19.747 253.398,19.4137 262.5,10.5C 265.912,11.0421 268.912,12.3754 271.5,14.5C 267.28,18.2021 262.613,21.3688 257.5,24C 252.572,25.4178 247.572,25.7511 242.5,25C 230.637,21.9772 223.97,14.4772 222.5,2.5 Z"/></g>
<g><path style="opacity:1" fill="#df3844" d="M 280.5,51.5 C 287.82,45.1789 294.486,38.1789 300.5,30.5C 319.634,37.8542 339.301,39.3542 359.5,35C 377.991,31.3321 395.158,24.4988 411,14.5C 406.774,24.9612 401.94,35.2945 396.5,45.5C 364.095,62.5637 330.095,66.7304 294.5,58C 289.623,56.0582 284.956,53.8915 280.5,51.5 Z"/></g>
<g><path style="opacity:1" fill="#044c97" d="M 95.5,16.5 C 108.167,16.5 120.833,16.5 133.5,16.5C 124.589,38.158 115.256,59.658 105.5,81C 110.5,81.3333 115.5,81.6667 120.5,82C 117.671,89.1498 114.838,96.3165 112,103.5C 106.917,104.307 101.75,104.807 96.5,105C 92.8172,112.698 89.1506,120.364 85.5,128C 74.1667,128.667 62.8333,128.667 51.5,128C 55.5201,120.434 58.8534,112.601 61.5,104.5C 42.8304,104.667 24.1637,104.5 5.5,104C 8.40441,98.3559 10.9044,92.5226 13,86.5C 13.8834,83.8976 15.3834,81.7309 17.5,80C 43.7536,59.0539 69.7536,37.8872 95.5,16.5 Z"/></g>
<g><path style="opacity:1" fill="#eb7876" d="M 276.5,17.5 C 278.819,17.9925 280.819,18.9925 282.5,20.5C 279.408,24.8218 275.741,28.6551 271.5,32C 266.787,34.8151 262.12,37.3151 257.5,39.5C 253.286,37.2263 248.953,35.2263 244.5,33.5C 257.827,33.5032 268.494,28.1699 276.5,17.5 Z"/></g>
<g><path style="opacity:1" fill="#e34a52" d="M 290.5,25.5 C 294.151,26.6589 297.485,28.3256 300.5,30.5C 294.486,38.1789 287.82,45.1789 280.5,51.5C 276.665,49.7505 272.999,47.7505 269.5,45.5C 278.422,40.9132 285.422,34.2465 290.5,25.5 Z"/></g>
<g><path style="opacity:1" fill="#e76366" d="M 282.5,20.5 C 285.54,21.6803 288.206,23.347 290.5,25.5C 285.422,34.2465 278.422,40.9132 269.5,45.5C 265.527,43.5133 261.527,41.5133 257.5,39.5C 262.12,37.3151 266.787,34.8151 271.5,32C 275.741,28.6551 279.408,24.8218 282.5,20.5 Z"/></g>
<g><path style="opacity:1" fill="#f9fafc" d="M 84.5,41.5 C 85.4889,46.9753 85.8222,52.642 85.5,58.5C 92.175,58.3337 98.8417,58.5004 105.5,59C 98.9093,63.2134 92.0759,67.0467 85,70.5C 84.8303,76.5275 84.3303,82.5275 83.5,88.5C 79.7111,84.3678 75.3778,81.0344 70.5,78.5C 63.6453,81.1771 57.1453,84.5105 51,88.5C 50.8333,88.1667 50.6667,87.8333 50.5,87.5C 54.7459,82.0087 58.7459,76.3421 62.5,70.5C 59.0156,66.5151 55.349,62.6818 51.5,59C 58.5,58.6667 65.5,58.3333 72.5,58C 76.7182,52.6218 80.7182,47.1218 84.5,41.5 Z"/></g>
<g><path style="opacity:1" fill="#ee8782" d="M 187.5,44.5 C 189.265,43.5386 191.265,43.2053 193.5,43.5C 197.167,43.5 200.833,43.5 204.5,43.5C 198.334,50.6761 196.001,59.0095 197.5,68.5C 194.941,68.1984 192.607,68.5318 190.5,69.5C 189.5,69.5 188.5,69.5 187.5,69.5C 187.334,63.4908 187.501,57.4908 188,51.5C 188.731,49.1013 189.898,46.9347 191.5,45C 190.207,44.51 188.873,44.3433 187.5,44.5 Z"/></g>
<g><path style="opacity:1" fill="#f29990" d="M 204.5,43.5 C 208.182,43.3347 211.848,43.5014 215.5,44C 208.512,47.8847 205.179,53.8847 205.5,62C 205.58,63.8937 205.913,65.7271 206.5,67.5C 203.572,68.4841 200.572,68.8174 197.5,68.5C 196.001,59.0095 198.334,50.6761 204.5,43.5 Z"/></g>
<g><path style="opacity:1" fill="#f5a99e" d="M 193.5,43.5 C 208.79,41.3791 223.79,42.7124 238.5,47.5C 238.062,47.4346 237.728,47.6012 237.5,48C 239.616,49.1707 240.282,50.6707 239.5,52.5C 241.002,55.6683 242.002,59.0016 242.5,62.5C 241.082,67.6499 239.415,72.6499 237.5,77.5C 234.828,76.4986 232.162,75.4986 229.5,74.5C 233.744,71.4604 236.078,67.2938 236.5,62C 234.881,52.3517 229.215,48.3517 219.5,50C 217.359,51.3076 215.359,52.8076 213.5,54.5C 211.644,59.5751 210.978,64.5751 211.5,69.5C 204.5,69.5 197.5,69.5 190.5,69.5C 192.607,68.5318 194.941,68.1984 197.5,68.5C 200.572,68.8174 203.572,68.4841 206.5,67.5C 205.913,65.7271 205.58,63.8937 205.5,62C 205.179,53.8847 208.512,47.8847 215.5,44C 211.848,43.5014 208.182,43.3347 204.5,43.5C 200.833,43.5 197.167,43.5 193.5,43.5 Z"/></g>
<g><path style="opacity:1" fill="#e86768" d="M 187.5,44.5 C 188.873,44.3433 190.207,44.51 191.5,45C 189.898,46.9347 188.731,49.1013 188,51.5C 187.501,57.4908 187.334,63.4908 187.5,69.5C 183.158,69.7395 178.824,70.0728 174.5,70.5C 173.135,63.4406 173.468,56.4406 175.5,49.5C 175.253,48.2867 174.586,47.62 173.5,47.5C 177.889,45.7538 182.556,44.7538 187.5,44.5 Z"/></g>
<g><path style="opacity:1" fill="#f1958d" d="M 238.5,47.5 C 243.49,48.9346 248.156,50.9346 252.5,53.5C 252.062,53.4346 251.728,53.6012 251.5,54C 253.666,59.1356 253.832,64.3023 252,69.5C 250.13,73.8957 248.297,78.229 246.5,82.5C 243.594,80.5498 240.594,78.8831 237.5,77.5C 239.415,72.6499 241.082,67.6499 242.5,62.5C 242.002,59.0016 241.002,55.6683 239.5,52.5C 240.282,50.6707 239.616,49.1707 237.5,48C 237.728,47.6012 238.062,47.4346 238.5,47.5 Z"/></g>
<g><path style="opacity:1" fill="#e03f48" d="M 173.5,47.5 C 174.586,47.62 175.253,48.2867 175.5,49.5C 173.468,56.4406 173.135,63.4406 174.5,70.5C 160.049,73.2427 146.715,78.4094 134.5,86C 139.182,76.9687 143.848,67.9687 148.5,59C 156.087,53.5398 164.42,49.7065 173.5,47.5 Z"/></g>
<g><path style="opacity:1" fill="#f8b8a9" d="M 229.5,74.5 C 223.516,72.3886 217.516,70.7219 211.5,69.5C 210.978,64.5751 211.644,59.5751 213.5,54.5C 215.359,52.8076 217.359,51.3076 219.5,50C 229.215,48.3517 234.881,52.3517 236.5,62C 236.078,67.2938 233.744,71.4604 229.5,74.5 Z"/></g>
<g><path style="opacity:1" fill="#df3843" d="M 274.5,96.5 C 278.201,89.238 281.034,81.5714 283,73.5C 283.708,72.6195 284.542,71.9528 285.5,71.5C 324.467,82.145 360.967,76.4783 395,54.5C 390.774,64.9612 385.94,75.2945 380.5,85.5C 363.353,94.8712 345.02,100.371 325.5,102C 314.833,102.667 304.167,102.667 293.5,102C 286.817,101.247 280.484,99.4139 274.5,96.5 Z"/></g>
<g><path style="opacity:1" fill="#ec7977" d="M 252.5,53.5 C 257.984,55.4068 262.984,58.0734 267.5,61.5C 265.917,70.9151 262.917,79.9151 258.5,88.5C 254.527,86.5133 250.527,84.5133 246.5,82.5C 248.297,78.229 250.13,73.8957 252,69.5C 253.832,64.3023 253.666,59.1356 251.5,54C 251.728,53.6012 252.062,53.4346 252.5,53.5 Z"/></g>
<g><path style="opacity:1" fill="#e24a51" d="M 276.5,66.5 C 279.696,67.9287 282.696,69.5954 285.5,71.5C 284.542,71.9528 283.708,72.6195 283,73.5C 281.034,81.5714 278.201,89.238 274.5,96.5C 270.849,95.3411 267.515,93.6744 264.5,91.5C 269.32,84.215 272.487,76.215 274,67.5C 274.671,66.7476 275.504,66.4142 276.5,66.5 Z"/></g>
<g><path style="opacity:1" fill="#e76265" d="M 267.5,61.5 C 270.696,62.9287 273.696,64.5954 276.5,66.5C 275.504,66.4142 274.671,66.7476 274,67.5C 272.487,76.215 269.32,84.215 264.5,91.5C 262.181,91.0075 260.181,90.0075 258.5,88.5C 262.917,79.9151 265.917,70.9151 267.5,61.5 Z"/></g>
<g><path style="opacity:1" fill="#e5575c" d="M 196.5,83.5 C 184.173,88.4937 175.506,97.1604 170.5,109.5C 166.477,110.075 162.477,110.741 158.5,111.5C 161.341,100.999 166.674,91.9993 174.5,84.5C 181.777,83.5696 189.11,83.2363 196.5,83.5 Z"/></g>
<g><path style="opacity:1" fill="#e03c46" d="M 174.5,84.5 C 166.674,91.9993 161.341,100.999 158.5,111.5C 144.32,113.423 131.32,118.423 119.5,126.5C 122.88,118.034 126.714,109.367 131,100.5C 143.912,90.9176 158.412,85.5842 174.5,84.5 Z"/></g>
<g><path style="opacity:1" fill="#ea7171" d="M 196.5,83.5 C 214.769,84.2261 231.436,89.5594 246.5,99.5C 245.957,99.56 245.624,99.8933 245.5,100.5C 252.678,111.045 255.678,122.712 254.5,135.5C 252.5,134.5 250.5,133.5 248.5,132.5C 249.509,106.771 237.343,92.7711 212,90.5C 197.901,90.4751 187.401,96.4751 180.5,108.5C 179.209,108.263 178.209,108.596 177.5,109.5C 175.167,109.5 172.833,109.5 170.5,109.5C 175.506,97.1604 184.173,88.4937 196.5,83.5 Z"/></g>
<g><path style="opacity:1" fill="#ed7e7a" d="M 248.5,132.5 C 246.632,131.737 244.965,130.737 243.5,129.5C 243.835,112.338 235.835,101.172 219.5,96C 206.1,93.2585 195.1,97.0918 186.5,107.5C 184.604,108.466 182.604,108.799 180.5,108.5C 187.401,96.4751 197.901,90.4751 212,90.5C 237.343,92.7711 249.509,106.771 248.5,132.5 Z"/></g>
<g><path style="opacity:1" fill="#ef8983" d="M 243.5,129.5 C 241.716,129.107 240.05,128.441 238.5,127.5C 236.451,108.286 225.785,99.4527 206.5,101C 200.678,102.071 196.012,104.905 192.5,109.5C 187.5,109.5 182.5,109.5 177.5,109.5C 178.209,108.596 179.209,108.263 180.5,108.5C 182.604,108.799 184.604,108.466 186.5,107.5C 195.1,97.0918 206.1,93.2585 219.5,96C 235.835,101.172 243.835,112.338 243.5,129.5 Z"/></g>
<g><path style="opacity:1" fill="#df3a45" d="M 267.5,140.5 C 267.554,132.644 267.388,124.644 267,116.5C 266.654,114.782 266.154,113.115 265.5,111.5C 265.624,110.893 265.957,110.56 266.5,110.5C 282.514,117.082 299.18,119.248 316.5,117C 339.399,113.982 360.399,106.815 379.5,95.5C 374.5,105.5 369.5,115.5 364.5,125.5C 346.166,135.665 326.499,141.499 305.5,143C 292.664,144.187 279.998,143.353 267.5,140.5 Z"/></g>
<g><path style="opacity:1" fill="#f29990" d="M 238.5,127.5 C 235.661,125.58 232.661,123.913 229.5,122.5C 226.81,113.983 220.976,109.316 212,108.5C 207.863,109.41 203.696,110.077 199.5,110.5C 196.941,110.802 194.607,110.468 192.5,109.5C 196.012,104.905 200.678,102.071 206.5,101C 225.785,99.4527 236.451,108.286 238.5,127.5 Z"/></g>
<g><path style="opacity:1" fill="#e65e61" d="M 246.5,99.5 C 253.174,103.17 259.841,106.837 266.5,110.5C 265.957,110.56 265.624,110.893 265.5,111.5C 266.154,113.115 266.654,114.782 267,116.5C 267.388,124.644 267.554,132.644 267.5,140.5C 262.927,139.421 258.593,137.754 254.5,135.5C 255.678,122.712 252.678,111.045 245.5,100.5C 245.624,99.8933 245.957,99.56 246.5,99.5 Z"/></g>
<g><path style="opacity:1" fill="#f6aca0" d="M 229.5,122.5 C 219.964,117.104 209.964,113.104 199.5,110.5C 203.696,110.077 207.863,109.41 212,108.5C 220.976,109.316 226.81,113.983 229.5,122.5 Z"/></g>
</svg>
